<svg width="113" height="112" viewBox="0 0 113 112" fill="none" xmlns="http://www.w3.org/2000/svg">
<g filter="url(#filter0_d_4255_50457)">
<path d="M104 53.9557C104 80.9915 82.0636 102.911 55 102.911C27.9364 102.911 6 80.9915 6 53.9557C6 26.9198 27.9364 5 55 5C82.0636 5 104 26.9198 104 53.9557Z" fill="white" stroke="#80D9CA" stroke-width="4"/>
<ellipse cx="55.4911" cy="53.956" rx="42.9208" ry="42.8835" fill="#CCE6E3"/>
</g>
<g clip-path="url(#clip0_4255_50457)">
<path d="M76.6288 29.5129H33.9573C32.7823 29.5129 31.8281 30.4671 31.8281 31.6421V74.3136C31.8281 75.4886 32.7823 76.4427 33.9573 76.4427H76.6288C77.8038 76.4427 78.7579 75.4886 78.7579 74.3136V31.6509C78.7579 30.4759 77.8038 29.5218 76.6288 29.5218V29.5129Z" fill="white"/>
<path d="M67.0274 46.5815L51.3724 61.5122L43.5625 54.0468" stroke="#3E325A" stroke-width="4" stroke-linecap="round" stroke-linejoin="round"/>
<path d="M76.6288 29.5129H33.9573C32.7823 29.5129 31.8281 30.4671 31.8281 31.6421V74.3136C31.8281 75.4886 32.7823 76.4427 33.9573 76.4427H76.6288C77.8038 76.4427 78.7579 75.4886 78.7579 74.3136V31.6509C78.7579 30.4759 77.8038 29.5218 76.6288 29.5218V29.5129Z" stroke="#3E325A" stroke-width="4" stroke-linecap="round" stroke-linejoin="round"/>
</g>
<defs>
<filter id="filter0_d_4255_50457" x="0.5" y="0" width="112" height="111.911" filterUnits="userSpaceOnUse" color-interpolation-filters="sRGB">
<feFlood flood-opacity="0" result="BackgroundImageFix"/>
<feColorMatrix in="SourceAlpha" type="matrix" values="0 0 0 0 0 0 0 0 0 0 0 0 0 0 0 0 0 0 127 0" result="hardAlpha"/>
<feOffset dx="1.5" dy="2"/>
<feGaussianBlur stdDeviation="2.5"/>
<feComposite in2="hardAlpha" operator="out"/>
<feColorMatrix type="matrix" values="0 0 0 0 0.376471 0 0 0 0 0.415686 0 0 0 0 1 0 0 0 0.35 0"/>
<feBlend mode="normal" in2="BackgroundImageFix" result="effect1_dropShadow_4255_50457"/>
<feBlend mode="normal" in="SourceGraphic" in2="effect1_dropShadow_4255_50457" result="shape"/>
</filter>
<clipPath id="clip0_4255_50457">
<rect width="51.2058" height="51.2058" fill="white" transform="translate(29.6914 27.3838)"/>
</clipPath>
</defs>
</svg>
