<svg width="390" height="124" viewBox="0 0 390 124" fill="none" xmlns="http://www.w3.org/2000/svg">
<g opacity="0.3">
<path fill-rule="evenodd" clip-rule="evenodd" d="M172.966 16.4102C168.643 25.4371 163.829 36.6039 162.272 41.2303C155.351 61.7785 129.751 69.3535 110.838 56.4511C99.1935 48.5086 86.037 48.0386 75.9249 55.2013C66.7961 61.663 64.6327 60.3134 55.6227 42.5169C49.825 31.0744 47.0634 28.7297 40.1513 29.3887C34.0176 29.9769 29.8301 33.9521 24.7126 44.0424C20.8488 51.6593 14.3915 60.2268 10.3638 63.0782C0.661392 69.9469 -18.4239 69.7683 -27.4871 62.7211C-43.1512 50.5408 -45.0933 49.782 -53.3371 52.6098C-57.6884 54.1012 -61.249 56.3723 -61.249 57.6536C-61.249 58.9376 -66.0223 63.6217 -71.8569 68.0643L-82.4648 76.1433L-66.7353 76.1617C-57.9383 76.1696 -45.5891 78.4775 -38.7138 81.3946C-23.6766 87.7749 -13.0687 87.9403 15.1863 82.2322C37.0168 77.8238 37.0414 77.8264 47.7518 84.2014C53.6478 87.7119 63.3421 97.0066 69.2914 104.855C88.3316 129.969 102.172 129.599 117.914 103.558C131.48 81.1163 132.39 80.7802 181.861 80.0109L224.842 79.3414L241.432 89.5577C250.556 95.1766 261.504 99.774 265.761 99.774C270.014 99.774 281.61 96.2216 291.529 91.8814C307.702 84.8053 311.75 84.1568 330.839 85.6035C348.49 86.94 354.186 86.2704 364.249 81.6782C370.919 78.6351 380.179 76.1433 384.825 76.1433C397.892 76.1433 420.796 90.7576 432.432 106.517C438.381 114.577 445.67 120.779 449.194 120.779C452.623 120.779 458.315 116.35 461.834 110.933C476.687 88.1084 500.611 75.6891 519.254 81.1294C527.006 83.3953 531.247 83.0987 539.269 79.73L549.451 75.4554L538.741 71.8951C531.116 69.3587 525.801 69.0988 520.295 70.9866C502.729 77.0098 476.326 63.6243 461.834 41.3537C458.212 35.7821 452.582 31.5076 448.866 31.5076C445.138 31.5076 439.561 35.7637 435.964 41.3537C432.477 46.7704 425.102 55.0385 419.575 59.7331C411.097 66.9326 406.889 68.2664 392.684 68.2664C377.331 68.2664 373.844 66.8722 353.321 52.5127C323.472 31.6336 314.003 31.8043 293.168 53.6049C289.649 57.2887 287.207 57.4357 275.87 54.6552C264.131 51.7749 261.32 52.0558 250.511 57.1758L238.355 62.9364L230.168 56.2699C225.669 52.6019 218.04 41.6924 213.222 32.0222C198.848 3.20064 196.365 0 188.355 0C182.684 0 178.878 4.0566 172.966 16.4102Z" fill="#80D9CA"/>
<path opacity="0.7" fill-rule="evenodd" clip-rule="evenodd" d="M100.132 16.4102C95.7294 25.4371 90.8264 36.6039 89.2408 41.2303C82.1931 61.7785 56.1219 69.3535 36.8606 56.4511C25.0018 48.5086 11.6031 48.0386 1.30487 55.2013C-7.99196 61.663 -10.1952 60.3134 -19.371 42.5169C-25.2754 31.0744 -28.0878 28.7297 -35.1272 29.3887C-41.3737 29.9769 -45.6382 33.9521 -50.85 44.0424C-54.7848 51.6593 -61.3611 60.2268 -65.4628 63.0782C-75.3438 69.9469 -94.7804 69.7683 -104.01 62.7211C-119.963 50.5408 -121.941 49.782 -130.336 52.6098C-134.768 54.1012 -138.394 56.3723 -138.394 57.6536C-138.394 58.9376 -143.255 63.6217 -149.197 68.0643L-160 76.1433L-143.981 76.1617C-135.022 76.1696 -122.446 78.4775 -115.444 81.3946C-100.13 87.7749 -89.3266 87.9403 -60.5516 82.2322C-38.3193 77.8238 -38.2943 77.8264 -27.3868 84.2014C-21.3822 87.7119 -11.5096 97.0066 -5.45076 104.855C13.9399 129.969 28.0353 129.599 44.0669 103.558C57.8828 81.1163 58.8091 80.7802 109.191 80.0109L152.962 79.3414L169.858 89.5577C179.15 95.1766 190.3 99.774 194.635 99.774C198.967 99.774 210.775 96.2216 220.878 91.8814C237.347 84.8053 241.47 84.1568 260.911 85.6035C278.887 86.9399 284.687 86.2704 294.935 81.6782C301.728 78.6351 311.159 76.1433 315.89 76.1433C329.197 76.1433 352.523 90.7576 364.373 106.517C370.432 114.577 377.855 120.779 381.444 120.779C384.936 120.779 390.732 116.35 394.317 110.933C409.443 88.1084 433.807 75.6891 452.793 81.1294C460.688 83.3953 465.007 83.0987 473.177 79.73L483.546 75.4554L472.639 71.8951C464.873 69.3587 459.461 69.0988 453.853 70.9866C435.965 77.0098 409.076 63.6243 394.317 41.3537C390.628 35.7821 384.895 31.5076 381.11 31.5076C377.313 31.5076 371.634 35.7637 367.97 41.3537C364.419 46.7704 356.908 55.0385 351.279 59.7331C342.646 66.9326 338.361 68.2664 323.894 68.2664C308.259 68.2664 304.708 66.8722 283.806 52.5127C253.408 31.6336 243.765 31.8043 222.547 53.6049C218.962 57.2887 216.475 57.4357 204.929 54.6552C192.975 51.7749 190.112 52.0558 179.104 57.1758L166.724 62.9364L158.387 56.2699C153.805 52.6019 146.036 41.6924 141.129 32.0222C126.491 3.20064 123.962 0 115.804 0C110.029 0 106.153 4.0566 100.132 16.4102Z" fill="#00C4A1"/>
</g>
</svg>
