<svg width="139" height="40" viewBox="0 0 139 40" fill="none" xmlns="http://www.w3.org/2000/svg">
<path d="M68.4493 12.5872H72.0428L68.2171 25.0898C67.586 27.1495 67.0601 27.4869 65.947 27.4869C64.834 27.4869 64.181 27.1714 63.5499 24.9846L61.4508 17.7144L59.3298 25.1292C58.7426 27.2283 58.0064 27.4825 56.9985 27.4825C55.9905 27.4825 55.3157 27.167 54.689 25.0854L50.8633 12.5828H54.4962L57.2088 22.5612L59.435 14.2831C59.8119 12.8326 60.6138 12.4776 61.4947 12.4776C62.5639 12.4776 63.195 13.0254 63.5543 14.2831L65.7586 22.478L68.4493 12.5828V12.5872Z" fill="#3E325A"/>
<path d="M71.4922 21.9386C71.4922 18.7045 73.4467 16.4126 77.268 16.4126C81.0894 16.4126 83.0877 18.7045 83.0877 21.9386C83.0877 25.1727 81.1113 27.4866 77.268 27.4866C73.4248 27.4866 71.4922 25.1947 71.4922 21.9386ZM79.6038 21.9386C79.6038 20.2383 78.8062 19.2479 77.2724 19.2479C75.7386 19.2479 74.9629 20.2339 74.9629 21.9386C74.9629 23.6433 75.7605 24.6469 77.2724 24.6469C78.7843 24.6469 79.6038 23.6784 79.6038 21.9386Z" fill="#3E325A"/>
<path d="M84.8741 27.2939V18.7441L84.5586 16.6011H87.8365L88.2572 18.5118C88.7393 17.2322 89.6245 16.496 91.1758 16.496H91.7411V20.0894H90.9436C88.6955 20.0894 88.3186 20.5496 88.3186 23.1132V27.2939H84.8741Z" fill="#3E325A"/>
<path d="M100.447 21.6454L104.396 27.2985H100.465L97.6296 23.2011H96.7663V27.2985H93.3438V12.2761H96.7663V20.449H97.5858L100.276 16.6058H104.185L100.447 21.6498V21.6454Z" fill="#3E325A"/>
<path d="M112.795 12.5873C116.344 12.5873 118.658 14.3533 118.658 17.9249C118.658 21.4964 116.349 23.2187 112.795 23.2187H109.473V27.2942H105.945V12.5873H112.795ZM112.124 20.2124C113.763 20.2124 115.025 19.6033 115.025 17.9205C115.025 16.2377 113.763 15.5891 112.124 15.5891H109.477V20.2124H112.124Z" fill="#3E325A"/>
<path d="M131.072 27.2941H127.794L127.456 25.699C126.72 26.8734 125.568 27.487 124.051 27.487C121.028 27.487 119.406 25.2389 119.406 21.939C119.406 18.6392 121.023 16.413 124.051 16.413C125.541 16.413 126.72 17.0002 127.456 18.1571L127.772 16.6014H130.756V24.9847L131.072 27.2941ZM127.312 21.9346C127.312 20.2343 126.536 19.2439 125.086 19.2439C123.635 19.2439 122.881 20.2299 122.881 21.9346C122.881 23.6393 123.657 24.6429 125.086 24.6429C126.514 24.6429 127.312 23.6744 127.312 21.9346Z" fill="#3E325A"/>
<path d="M137.014 27.3992C134.24 27.3992 133 26.1196 133 22.8592V12.2716H136.444V22.903C136.444 23.9547 136.633 24.4149 137.724 24.4149H138.776V27.3992H137.01H137.014Z" fill="#3E325A"/>
<path d="M5.26162 11.9853C5.07727 11.7969 4.11457 10.9598 1.93516 11.4063C0.631074 14.1429 -0.0708146 17.2222 0.0056557 20.4722C0.252818 31.1725 9.01549 39.8492 19.7186 39.998C30.8942 40.1523 40.001 31.1398 40.001 19.9997C40.001 16.706 39.2049 13.5994 37.7943 10.8601C35.2066 11.9949 34.1742 13.4478 32.2024 20.0721C30.7972 24.7927 29.825 28.35 28.8991 30.6209C28.3952 31.858 27.733 34.4198 25.2682 34.473C25.2422 34.473 25.2163 34.473 25.1903 34.473C22.4073 34.473 21.2985 31.4402 20.6349 29L20.5871 28.8252C19.974 26.5761 19.4824 23.1937 18.9621 19.6132C18.887 19.1012 18.805 18.5372 18.7177 17.9445C18.5661 16.9218 17.1186 16.8439 16.8605 17.8449C16.7772 18.1712 16.698 18.4798 16.6243 18.7721C16.1832 20.5063 15.891 21.6534 15.4458 22.5587C14.4107 24.6603 12.7052 24.8542 11.7807 24.7832C10.7948 24.7067 9.45656 24.1673 8.68503 22.0234C8.36413 21.1344 8.15793 20.083 7.9176 18.8649C7.46424 16.5613 6.90027 13.6936 5.46782 12.2202C5.46782 12.2202 5.3654 12.0632 5.26162 11.984V11.9853Z" fill="#606AFF"/>
<path d="M27.6126 19.037C29.112 12.7446 31.5167 8.86236 35.134 6.92329C31.4661 2.68329 26.0463 0 20.0011 0C14.035 0 8.67937 2.61364 5.01562 6.75669C7.21414 7.24556 8.47454 8.50322 8.90468 9.0071C9.99985 10.1583 10.7454 11.5825 11.2835 13.0518C11.6385 14.02 13.0286 13.9708 13.3222 12.9822C13.6609 11.8406 14.0623 10.5747 14.5444 9.1737C14.9759 7.92286 15.9877 4.99515 18.5509 5.23685C21.114 5.47855 21.8131 8.6944 22.2747 10.8219C22.7677 13.0942 23.1992 16.0642 23.617 18.9373L24.3681 23.3617C24.5333 24.3339 25.8934 24.4295 26.1924 23.49L27.6112 19.037H27.6126Z" fill="#606AFF"/>
</svg>
