<svg width="113" height="113" viewBox="0 0 113 113" fill="none" xmlns="http://www.w3.org/2000/svg">
<g filter="url(#filter0_d_4255_50465)">
<path d="M104 54.9166C104 81.9524 82.0636 103.872 55 103.872C27.9364 103.872 6 81.9524 6 54.9166C6 27.8808 27.9364 5.96094 55 5.96094C82.0636 5.96094 104 27.8808 104 54.9166Z" fill="white" stroke="#80D9CA" stroke-width="4"/>
<ellipse cx="55.4911" cy="54.9169" rx="42.9208" ry="42.8835" fill="#CCE6E3"/>
</g>
<path d="M71.1109 41.7556H38.7251C35.5481 41.7556 32.9727 44.3805 32.9727 47.6184V60.2766C32.9727 63.5145 35.5481 66.1393 38.7251 66.1393H71.1109C74.2879 66.1393 76.8633 63.5145 76.8633 60.2766V47.6184C76.8633 44.3805 74.2879 41.7556 71.1109 41.7556Z" fill="#CCE6E2"/>
<path d="M77.4694 34.4407H32.3658C27.314 34.4407 23.2188 38.4803 23.2188 43.4635V66.8701C23.2188 71.8533 27.314 75.893 32.3658 75.893H77.4694C82.5211 75.893 86.6164 71.8533 86.6164 66.8701V43.4635C86.6164 38.4803 82.5211 34.4407 77.4694 34.4407Z" fill="#DFD4F5" stroke="#3E325A" stroke-width="4" stroke-linecap="round" stroke-linejoin="round"/>
<path d="M71.1109 41.7556H38.7251C35.5481 41.7556 32.9727 44.3805 32.9727 47.6184V60.2766C32.9727 63.5145 35.5481 66.1393 38.7251 66.1393H71.1109C74.2879 66.1393 76.8633 63.5145 76.8633 60.2766V47.6184C76.8633 44.3805 74.2879 41.7556 71.1109 41.7556Z" fill="white" stroke="#3E325A" stroke-width="4" stroke-linecap="round" stroke-linejoin="round"/>
<path d="M45.1649 55.1668C46.5116 55.1668 47.6033 54.3481 47.6033 53.3381C47.6033 52.328 46.5116 51.5093 45.1649 51.5093C43.8183 51.5093 42.7266 52.328 42.7266 53.3381C42.7266 54.3481 43.8183 55.1668 45.1649 55.1668Z" fill="#00C4A1"/>
<path d="M64.6688 55.1668C66.0155 55.1668 67.1072 54.3481 67.1072 53.3381C67.1072 52.328 66.0155 51.5093 64.6688 51.5093C63.3222 51.5093 62.2305 52.328 62.2305 53.3381C62.2305 54.3481 63.3222 55.1668 64.6688 55.1668Z" fill="#00C4A1"/>
<defs>
<filter id="filter0_d_4255_50465" x="0.5" y="0.960938" width="112" height="111.911" filterUnits="userSpaceOnUse" color-interpolation-filters="sRGB">
<feFlood flood-opacity="0" result="BackgroundImageFix"/>
<feColorMatrix in="SourceAlpha" type="matrix" values="0 0 0 0 0 0 0 0 0 0 0 0 0 0 0 0 0 0 127 0" result="hardAlpha"/>
<feOffset dx="1.5" dy="2"/>
<feGaussianBlur stdDeviation="2.5"/>
<feComposite in2="hardAlpha" operator="out"/>
<feColorMatrix type="matrix" values="0 0 0 0 0.376471 0 0 0 0 0.415686 0 0 0 0 1 0 0 0 0.35 0"/>
<feBlend mode="normal" in2="BackgroundImageFix" result="effect1_dropShadow_4255_50465"/>
<feBlend mode="normal" in="SourceGraphic" in2="effect1_dropShadow_4255_50465" result="shape"/>
</filter>
</defs>
</svg>
