<svg width="181" height="35" viewBox="0 0 181 35" fill="none" xmlns="http://www.w3.org/2000/svg">
<g clip-path="url(#clip0_4540_45645)">
<path d="M1.29219 33.6285C2.13322 34.4696 3.25891 34.9613 4.514 35.0001H6.76538C7.96871 35.0001 9.0944 34.5213 9.9872 33.6285C10.88 32.7358 11.3199 31.6618 11.3587 30.4067V18.7358C11.3587 16.7302 12.1221 14.9187 13.5325 13.5084C14.9428 12.098 16.7931 11.3735 18.7598 11.3346C22.8615 11.3346 26.1609 14.6341 26.1609 18.7358V30.4067C26.1609 32.904 28.2182 34.9483 30.7025 34.9483H32.9539C34.1572 34.9483 35.2829 34.4696 36.1757 33.5768C37.0685 32.684 37.5085 31.6101 37.5473 30.355L37.5085 18.7358C37.5085 13.7542 35.5805 9.00562 32.0353 5.46034C28.49 1.91505 23.7672 -0.0387378 18.7469 7.92216e-05C13.7524 7.92216e-05 9.01677 1.92799 5.47148 5.47328C1.9262 9.01856 -0.0405315 13.7154 -0.00171454 18.7487V30.4197C-0.0405315 31.6618 0.438212 32.7875 1.27925 33.6415L1.29219 33.6285ZM35.2441 30.4067C35.2441 31.0537 34.9983 31.6101 34.5972 32.0112C34.1961 32.4123 33.5879 32.6969 32.9927 32.6581H30.7414C29.4604 32.6581 28.4512 31.6489 28.4512 30.3679V26.1886H35.2959L35.2571 30.4067H35.2441ZM2.24967 18.7487C2.24967 9.65257 9.65078 2.25147 18.7469 2.25147C23.172 2.25147 27.3125 3.98529 30.4179 7.07771C33.5232 10.1701 35.2441 14.3236 35.2441 18.7487V23.9761H28.3994V18.7487C28.3994 13.4437 24.0519 9.0962 18.7469 9.0962C16.172 9.0962 13.7136 10.1054 11.9151 11.9169C10.1166 13.7284 9.0944 16.1868 9.0944 18.7487V23.4197H2.24967V18.7487ZM2.24967 30.4197V25.6711H9.0944V30.4197C9.0944 31.0666 8.84856 31.623 8.44745 32.0241C8.00753 32.464 7.43821 32.7099 6.84302 32.6711H4.59163C3.94468 32.6711 3.3883 32.4252 2.9872 32.0241C2.58609 31.623 2.26261 31.0537 2.26261 30.4197H2.24967Z" fill="#3E325A"/>
<path d="M63.4135 8.99268V27.0555H59.8164V17.3771L54.9255 22.0352L50.0345 17.3771V27.0555H46.4375V8.99268L54.9255 17.0796L63.4135 8.99268Z" fill="#3E325A"/>
<path d="M82.5625 27.0555H78.6808L75.032 18.3346L71.409 27.0555H67.5273L75.032 8.99268L82.5625 27.0555Z" fill="#3E325A"/>
<path d="M101.648 15.3975V22.294C100.833 23.8337 99.5652 25.1017 98.0513 25.9428C96.7574 26.6544 95.2435 27.0814 93.6391 27.0814C88.6446 27.0814 84.543 23.0056 84.543 17.9853C84.543 12.9649 88.6446 8.88916 93.6391 8.88916C96.0457 8.88916 98.2324 9.84665 99.8498 11.3476L96.9644 13.6248C96.0328 12.9132 94.8812 12.4862 93.6391 12.4862C90.5984 12.4862 88.14 14.9446 88.14 17.9853C88.14 21.0259 90.5984 23.4844 93.6391 23.4844C95.4376 23.4844 97.055 22.6174 98.0513 21.2588V18.9816H93.6391V15.3845H101.648V15.3975Z" fill="#3E325A"/>
<path d="M120.05 9.01855V27.0426L109.867 17.3901V27.0426H106.27V9.01855L116.453 18.6969V9.01855H120.05Z" fill="#3E325A"/>
<path d="M136.467 8.99268V12.5897H124.68V8.99268H136.467ZM136.467 15.3587V18.9557H128.277V23.4455H136.467V27.0426H124.68V15.3587H136.467Z" fill="#3E325A"/>
<path d="M154.154 12.5897H149.419V27.0555H145.822V12.5897H141.086V9.01855H154.141V12.5897H154.154Z" fill="#3E325A"/>
<path d="M158.789 27.0555V9.01855H162.386V27.0426H158.789V27.0555Z" fill="#3E325A"/>
<path d="M175.647 18.037L180.512 27.0555H176.41L173.602 21.8152L170.795 27.0555H166.719L171.558 18.037L166.719 9.01855H170.795L173.602 14.233L176.41 9.01855H180.512L175.647 18.037Z" fill="#3E325A"/>
</g>
<defs>
<clipPath id="clip0_4540_45645">
<rect width="180.512" height="35" fill="white"/>
</clipPath>
</defs>
</svg>
