<svg width="113" height="113" viewBox="0 0 113 113" fill="none" xmlns="http://www.w3.org/2000/svg">
<g filter="url(#filter0_d_4254_45560)">
<path d="M104 54.8529C104 81.8887 82.0636 103.809 55 103.809C27.9364 103.809 6 81.8887 6 54.8529C6 27.817 27.9364 5.89722 55 5.89722C82.0636 5.89722 104 27.817 104 54.8529Z" fill="white" stroke="#80D9CA" stroke-width="4"/>
<ellipse cx="55.4911" cy="54.8532" rx="42.9208" ry="42.8835" fill="#CCE6E3"/>
</g>
<g clip-path="url(#clip0_4254_45560)">
<path d="M78.5264 46.4253H31.7305V79.7736H78.5264V46.4253Z" fill="white"/>
<path d="M32.3212 45.2322H76.5154V35.905C76.5154 35.4122 76.307 34.9371 75.9249 34.5851C75.5514 34.2331 75.0391 34.0396 74.5006 34.0396H34.3272C33.7975 34.0396 33.2851 34.2331 32.903 34.5851C32.5296 34.9371 32.3125 35.4122 32.3125 35.905V45.2322H32.3212Z" fill="#DFD4F5"/>
<path d="M75.4214 33.3884H33.7717C32.6254 33.3884 31.6875 34.3299 31.6875 35.5002V77.7015C31.6875 78.863 32.6167 79.8133 33.7717 79.8133H75.4214C76.5678 79.8133 77.5057 78.8718 77.5057 77.7015V35.5002C77.5057 34.3387 76.5764 33.3884 75.4214 33.3884Z" stroke="#3E325A" stroke-width="4" stroke-linecap="round" stroke-linejoin="round"/>
<path d="M67.0938 29.1736V37.6121" stroke="#3E325A" stroke-width="4" stroke-linecap="round" stroke-linejoin="round"/>
<path d="M42.1016 29.1736V37.6121" stroke="#3E325A" stroke-width="4" stroke-linecap="round" stroke-linejoin="round"/>
<path d="M31.6875 46.0505H77.5057" stroke="#3E325A" stroke-width="4" stroke-linecap="round" stroke-linejoin="round"/>
</g>
<defs>
<filter id="filter0_d_4254_45560" x="0.5" y="0.897217" width="112" height="111.911" filterUnits="userSpaceOnUse" color-interpolation-filters="sRGB">
<feFlood flood-opacity="0" result="BackgroundImageFix"/>
<feColorMatrix in="SourceAlpha" type="matrix" values="0 0 0 0 0 0 0 0 0 0 0 0 0 0 0 0 0 0 127 0" result="hardAlpha"/>
<feOffset dx="1.5" dy="2"/>
<feGaussianBlur stdDeviation="2.5"/>
<feComposite in2="hardAlpha" operator="out"/>
<feColorMatrix type="matrix" values="0 0 0 0 0.376471 0 0 0 0 0.415686 0 0 0 0 1 0 0 0 0.35 0"/>
<feBlend mode="normal" in2="BackgroundImageFix" result="effect1_dropShadow_4254_45560"/>
<feBlend mode="normal" in="SourceGraphic" in2="effect1_dropShadow_4254_45560" result="shape"/>
</filter>
<clipPath id="clip0_4254_45560">
<rect width="49.9866" height="54.8633" fill="white" transform="translate(29.6016 27.0618)"/>
</clipPath>
</defs>
</svg>
