<svg width="113" height="113" viewBox="0 0 113 113" fill="none" xmlns="http://www.w3.org/2000/svg">
<g filter="url(#filter0_d_4255_50451)">
<path d="M104 54.9168C104 81.9527 82.0636 103.872 55 103.872C27.9364 103.872 6 81.9527 6 54.9168C6 27.881 27.9364 5.96118 55 5.96118C82.0636 5.96118 104 27.881 104 54.9168Z" fill="white" stroke="#80D9CA" stroke-width="4"/>
<ellipse cx="55.4911" cy="54.9172" rx="42.9208" ry="42.8835" fill="#CCE6E3"/>
</g>
<path d="M35.3837 74.6738L34.9453 28.3447L59.9318 28.786L73.9593 42.0228V74.6738H35.3837Z" fill="white"/>
<path d="M77.0337 40.6107L63.0685 26.4963C62.8831 26.3091 62.663 26.1607 62.4208 26.0595C62.1786 25.9583 61.9191 25.9063 61.657 25.9065H37.7166C36.6584 25.9065 35.6435 26.3314 34.8952 27.0876C34.1469 27.8439 33.7266 28.8696 33.7266 29.9392V74.2988C33.7266 75.3683 34.1469 76.394 34.8952 77.1503C35.6435 77.9066 36.6584 78.3315 37.7166 78.3315H73.6272C74.6854 78.3315 75.7003 77.9066 76.4486 77.1503C77.1969 76.394 77.6172 75.3683 77.6172 74.2988V42.0373C77.6174 41.7724 77.566 41.5101 77.4659 41.2653C77.3658 41.0205 77.2189 40.7981 77.0337 40.6107ZM63.652 32.7898L70.8067 40.0209H63.652V32.7898ZM73.6272 74.2988H37.7166V29.9392H59.662V42.0373C59.662 42.572 59.8722 43.0849 60.2463 43.463C60.6204 43.8412 61.1279 44.0536 61.657 44.0536H73.6272V74.2988ZM65.6471 54.1353C65.6471 54.6701 65.4369 55.183 65.0627 55.5611C64.6886 55.9392 64.1811 56.1517 63.652 56.1517H47.6918C47.1627 56.1517 46.6552 55.9392 46.2811 55.5611C45.9069 55.183 45.6967 54.6701 45.6967 54.1353C45.6967 53.6006 45.9069 53.0877 46.2811 52.7096C46.6552 52.3314 47.1627 52.119 47.6918 52.119H63.652C64.1811 52.119 64.6886 52.3314 65.0627 52.7096C65.4369 53.0877 65.6471 53.6006 65.6471 54.1353ZM65.6471 62.2007C65.6471 62.7355 65.4369 63.2483 65.0627 63.6265C64.6886 64.0046 64.1811 64.2171 63.652 64.2171H47.6918C47.1627 64.2171 46.6552 64.0046 46.2811 63.6265C45.9069 63.2483 45.6967 62.7355 45.6967 62.2007C45.6967 61.6659 45.9069 61.1531 46.2811 60.7749C46.6552 60.3968 47.1627 60.1844 47.6918 60.1844H63.652C64.1811 60.1844 64.6886 60.3968 65.0627 60.7749C65.4369 61.1531 65.6471 61.6659 65.6471 62.2007Z" fill="#3E325A"/>
<defs>
<filter id="filter0_d_4255_50451" x="0.5" y="0.961182" width="112" height="111.911" filterUnits="userSpaceOnUse" color-interpolation-filters="sRGB">
<feFlood flood-opacity="0" result="BackgroundImageFix"/>
<feColorMatrix in="SourceAlpha" type="matrix" values="0 0 0 0 0 0 0 0 0 0 0 0 0 0 0 0 0 0 127 0" result="hardAlpha"/>
<feOffset dx="1.5" dy="2"/>
<feGaussianBlur stdDeviation="2.5"/>
<feComposite in2="hardAlpha" operator="out"/>
<feColorMatrix type="matrix" values="0 0 0 0 0.376471 0 0 0 0 0.415686 0 0 0 0 1 0 0 0 0.35 0"/>
<feBlend mode="normal" in2="BackgroundImageFix" result="effect1_dropShadow_4255_50451"/>
<feBlend mode="normal" in="SourceGraphic" in2="effect1_dropShadow_4255_50451" result="shape"/>
</filter>
</defs>
</svg>
