<svg width="1028" height="135" viewBox="0 0 1028 135" fill="none" xmlns="http://www.w3.org/2000/svg">
<g opacity="0.3">
<path opacity="0.7" fill-rule="evenodd" clip-rule="evenodd" d="M1034.67 51.3872C1033.09 46.7591 1028.18 35.5884 1023.78 26.5582C1017.76 14.2002 1013.88 10.1422 1008.1 10.1422C999.941 10.1422 997.411 13.344 982.768 42.1758C977.859 51.8494 970.087 62.7628 965.504 66.4321L957.164 73.101L944.779 67.3383C933.767 62.2165 930.904 61.9355 918.945 64.8168C907.395 67.5983 904.907 67.4512 901.321 63.7662C880.095 41.9578 870.449 41.7871 840.04 62.6735C819.131 77.0382 815.579 78.4329 799.938 78.4329C785.466 78.4329 781.179 77.0986 772.543 69.8966C766.912 65.2003 759.398 56.9292 755.846 51.5106C752.181 45.9186 746.5 41.661 742.701 41.661C738.915 41.661 733.18 45.937 729.49 51.5106C723.71 60.2322 716.071 67.5916 707.84 72.9572C703.463 74.1772 698.206 74.9437 695.122 73.1082C693.835 72.2208 692.638 71.3719 691.507 70.5706C687.254 67.5565 683.953 65.2171 680.451 64.0385C672.052 61.2097 670.074 61.9688 654.116 74.1534C644.882 81.2031 625.439 81.3817 615.554 74.5106C611.451 71.6582 604.872 63.0877 600.936 55.468C595.722 45.3741 591.456 41.3975 585.208 40.8092C578.166 40.1499 575.352 42.4954 569.446 53.942C560.267 71.7449 558.063 73.0949 548.763 66.6309C538.461 59.4657 525.057 59.9358 513.194 67.8812C493.926 80.7881 467.845 73.2105 460.795 52.655C459.209 48.027 454.304 36.8562 449.901 27.826C443.877 15.468 439.999 11.41 434.222 11.41C426.062 11.41 423.532 14.6118 408.889 43.4436C403.98 53.1173 396.208 64.0306 391.624 67.7L383.284 74.3688L370.899 68.6061C359.888 63.4843 357.024 63.2033 345.065 66.0846C333.515 68.8662 331.027 68.7191 327.442 65.034C306.216 43.2256 296.57 43.0549 266.161 63.9413C245.252 78.306 241.7 79.7007 226.059 79.7007C211.587 79.7007 207.3 78.3664 198.664 71.1644C193.033 66.4681 185.519 58.197 181.967 52.7784C178.302 47.1865 172.621 42.9288 168.822 42.9288C165.036 42.9288 159.301 47.2049 155.611 52.7784C140.847 75.057 113.948 88.4472 96.0535 82.4219C90.4432 80.5334 85.0294 80.7934 77.2612 83.3307L66.3499 86.8923L76.7227 91.1683C84.8958 94.5382 89.2161 94.835 97.1138 92.5683C116.106 87.126 140.479 99.5497 155.611 122.382C159.197 127.801 164.995 132.232 168.488 132.232C172.078 132.232 179.504 126.028 185.565 117.965C197.42 102.2 220.754 87.5804 234.065 87.5804C238.799 87.5804 248.233 90.0731 255.028 93.1172C265.28 97.7111 271.081 98.3809 289.064 97.044C308.512 95.5967 312.636 96.2455 329.111 103.324C339.217 107.666 351.03 111.22 355.363 111.22C359.7 111.22 370.853 106.62 380.149 101L397.051 90.7796L440.838 91.4494C491.238 92.219 492.164 92.5552 505.985 115.004C522.022 141.055 536.123 141.425 555.521 116.302C561.581 108.451 571.458 99.1531 577.464 95.6414C588.376 89.2641 588.401 89.2614 610.641 93.6714C639.427 99.3816 650.234 99.2161 665.553 92.8336C665.994 92.6499 666.457 92.4686 666.94 92.2902C668.2 92.0497 669.535 91.7187 670.993 91.3005C689.985 85.8582 714.358 98.2819 729.49 121.115C733.076 126.533 738.873 130.964 742.367 130.964C745.957 130.964 753.383 124.76 759.444 116.697C771.299 100.932 794.633 86.3126 807.944 86.3126C812.678 86.3126 822.111 88.8052 828.907 91.8494C839.159 96.4433 844.961 97.1131 862.943 95.7761C882.391 94.3289 886.515 94.9777 902.991 102.056C913.096 106.398 924.91 109.952 929.242 109.952C933.579 109.952 944.733 105.353 954.029 99.7318L970.93 89.5118L1014.72 90.1815C1065.12 90.9511 1066.04 91.2873 1079.86 113.737C1095.9 139.787 1110 140.157 1129.4 115.034C1135.46 107.183 1145.34 97.8853 1151.34 94.3736C1162.25 87.9963 1162.28 87.9936 1184.52 92.4036C1213.31 98.1138 1224.11 97.9483 1239.43 91.5658C1246.44 88.6476 1259.02 86.3389 1267.98 86.331L1284 86.3126L1273.2 78.2307C1267.25 73.7865 1262.39 69.1007 1262.39 67.8163C1262.39 66.5346 1258.76 64.2626 1254.33 62.7707C1245.93 59.9419 1243.95 60.701 1227.99 72.8856C1218.76 79.9353 1199.32 80.1139 1189.43 73.2428C1185.33 70.3904 1178.75 61.8199 1174.82 54.2002C1169.6 44.1063 1165.34 40.1297 1159.09 39.5413C1152.04 38.8821 1149.23 41.2276 1143.32 52.6742C1134.15 70.477 1131.94 71.8271 1122.64 65.3631C1112.34 58.1978 1098.94 58.668 1087.07 66.6134C1067.81 79.5203 1041.72 71.9427 1034.67 51.3872Z" fill="#80D9CA"/>
<path opacity="0.7" fill-rule="evenodd" clip-rule="evenodd" d="M968.327 41.245C966.741 36.617 961.836 25.4462 957.432 16.416C951.409 4.05805 947.531 0 941.754 0C933.593 0 931.064 3.20178 916.421 32.0336C911.512 41.7072 903.739 52.6206 899.156 56.29L890.816 62.9588L878.431 57.1961C867.42 52.0743 864.556 51.7933 852.597 54.6746C841.047 57.4562 838.559 57.3091 834.973 53.624C813.748 31.8156 804.101 31.6449 773.692 52.5313C752.783 66.896 749.231 68.2907 733.59 68.2907C719.118 68.2907 714.831 66.9564 706.195 59.7544C700.564 55.0581 693.05 46.787 689.498 41.3684C685.833 35.7765 680.152 31.5188 676.354 31.5188C672.568 31.5188 666.832 35.7948 663.142 41.3684C657.362 50.0899 649.723 57.4492 641.492 62.8148C637.116 64.0349 631.858 64.8015 628.775 62.9659C627.488 62.0785 626.29 61.2296 625.159 60.4283C620.906 57.4142 617.605 55.0748 614.103 53.8962C605.705 51.0674 603.726 51.8265 587.768 64.0111C578.535 71.0608 559.091 71.2394 549.207 64.3683C545.103 61.5159 538.525 52.9454 534.588 45.3257C529.375 35.2318 525.109 31.2552 518.86 30.6669C511.818 30.0076 509.005 32.3531 503.098 43.7997C493.919 61.6026 491.715 62.9526 482.415 56.4886C472.113 49.3234 458.709 49.7935 446.846 57.7389C427.578 70.6458 401.498 63.0682 394.448 42.5127C392.861 37.8847 387.957 26.7139 383.553 17.6837C377.529 5.32575 373.652 1.2677 367.875 1.2677C359.714 1.2677 357.184 4.46948 342.541 33.3013C337.632 42.9749 329.86 53.8883 325.277 57.5577L316.937 64.2265L304.552 58.4638C293.54 53.342 290.677 53.061 278.718 55.9423C267.167 58.7239 264.68 58.5768 261.094 54.8917C239.868 33.0833 230.222 32.9126 199.813 53.799C178.905 68.1637 175.352 69.5584 159.712 69.5584C145.24 69.5584 140.953 68.2241 132.316 61.0221C126.685 56.3258 119.172 48.0547 115.62 42.6361C111.954 37.0442 106.273 32.7865 102.475 32.7865C98.6887 32.7865 92.9534 37.0625 89.2634 42.6361C74.4991 64.9147 47.6006 78.3049 29.7058 72.2796C24.0956 70.3911 18.6818 70.6511 10.9136 73.1883L0.00219727 76.75L10.375 81.026C18.5481 84.3959 22.8684 84.6927 30.7661 82.426C49.7587 76.9837 74.1318 89.4074 89.2634 112.24C92.849 117.659 98.647 122.09 102.141 122.09C105.731 122.09 113.157 115.886 119.218 107.822C131.072 92.0576 154.406 77.4381 167.718 77.4381C172.451 77.4381 181.885 79.9308 188.681 82.9749C198.932 87.5688 204.734 88.2386 222.716 86.9016C242.164 85.4544 246.288 86.1032 262.764 93.1818C272.869 97.5235 284.682 101.077 289.015 101.077C293.352 101.077 304.506 96.4781 313.802 90.8573L330.703 80.6373L374.491 81.3071C424.89 82.0767 425.817 82.4128 439.638 104.862C455.675 130.912 469.775 131.283 489.173 106.16C495.234 98.3088 505.11 89.0108 511.117 85.4991C522.028 79.1218 522.053 79.1191 544.294 83.5291C573.079 89.2393 583.886 89.0738 599.205 82.6913C599.646 82.5077 600.109 82.3265 600.591 82.1481C601.852 81.9076 603.188 81.5766 604.645 81.1583C623.638 75.716 648.011 88.1397 663.142 110.972C666.728 116.391 672.526 120.822 676.02 120.822C679.609 120.822 687.035 114.618 693.096 106.555C704.951 90.7899 728.285 76.1704 741.596 76.1704C746.33 76.1704 755.764 78.6631 762.559 81.7072C772.811 86.3011 778.613 86.9709 796.596 85.6339C816.043 84.1867 820.167 84.8355 836.643 91.9141C846.749 96.2558 858.562 99.8095 862.895 99.8095C867.232 99.8095 878.385 95.2104 887.681 89.5896L904.582 79.3696L948.37 80.0394C998.769 80.809 999.696 81.1451 1013.52 103.594C1029.55 129.645 1043.65 130.015 1063.05 104.892C1069.11 97.0411 1078.99 87.7431 1085 84.2314C1095.91 77.8541 1095.93 77.8514 1118.17 82.2614C1146.96 87.9716 1157.76 87.8061 1173.08 81.4236C1180.09 78.5055 1192.67 76.1967 1201.63 76.1888L1217.66 76.1704L1206.85 68.0885C1200.91 63.6443 1196.04 58.9585 1196.04 57.6742C1196.04 56.3924 1192.41 54.1204 1187.98 52.6285C1179.58 49.7997 1177.6 50.5588 1161.65 62.7434C1152.41 69.7931 1132.97 69.9717 1123.09 63.1006C1118.98 60.2482 1112.4 51.6777 1108.47 44.058C1103.25 33.9641 1098.99 29.9875 1092.74 29.3992C1085.7 28.7399 1082.88 31.0854 1076.98 42.532C1067.8 60.3349 1065.59 61.6849 1056.29 55.2209C1045.99 48.0557 1032.59 48.5258 1020.73 56.4712C1001.46 69.3781 975.377 61.8005 968.327 41.245Z" fill="#00C4A1"/>
</g>
</svg>
